<svg height="2380" viewBox="-.4 .8 81.1 78.4" width="2500" xmlns="http://www.w3.org/2000/svg"><path d="m78.7 32.8c-3.6-18.6-19.8-32-38.6-32-2.4 0-4.9.2-7.4.7-10.2 2-19.1 7.8-25 16.5-5.9 8.6-8.1 19-6.1 29.3 3.5 18.5 19.7 31.9 38.5 31.9 2.4 0 4.9-.2 7.4-.7 10.3-2 19.2-7.8 25.1-16.4s8.1-19.1 6.1-29.3z"/><g fill="#fff"><path d="m40 6.5c16 0 29.9 11.5 32.9 27.3 1.7 8.8-.2 17.7-5.2 25.1s-12.7 12.4-21.4 14c-2.1.4-4.2.6-6.3.6-16 0-29.9-11.5-32.9-27.3-1.7-8.8.2-17.7 5.2-25.1s12.7-12.4 21.4-14c2.1-.4 4.2-.6 6.3-.6m0-4c-2.3 0-4.7.2-7 .7-9.8 1.8-18.4 7.4-24 15.7-5.7 8.3-7.7 18.2-5.9 28.1 3.4 17.7 18.9 30.5 36.9 30.5 2.3 0 4.7-.2 7-.7 9.8-1.9 18.4-7.5 24-15.8s7.7-18.3 5.9-28.1c-3.4-17.6-18.9-30.4-36.9-30.4z"/><path d="m62.7 38.4c-.1 0-.1 0-.2.1-2.1.6-2.7 1.6-2.5 3.5.1 1.4.3 2.9.5 4.2.2 1.6.4 3.1.4 4.7-.1 3.1-1.6 4.9-4.7 5.7l-1.5.3c-.5.1-.9.2-1.4.3l-.4.1-.9-4.6.4-.1c.3-.1.5-.1.8-.2.2-.1.5-.1.7-.2 1.5-.4 1.8-.8 1.6-2.3-.2-1.7-.4-3.2-.7-4.9l-.1-.7c-.3-2.4-.3-5.1 1.8-7.4-1.7-.9-2.8-2-3.3-3.4-.5-1.2-.8-2.5-1.1-3.7-.2-.8-.4-1.6-.7-2.4-.2-1.1-.4-2.1-.7-3.1-.2-.6-.6-1-1.2-1-.1 0-.3 0-.4.1-.5.1-1.2.2-1.9.3l-.4.1-.9-4.6.3-.1c.7-.3 1.6-.6 2.6-.7.3 0 .8-.1 1.2-.1 3 0 5 1.8 5.8 5.1.4 1.7.8 3.6 1.2 5.4l.1.2c.3.9.6 1.9 1 2.9.5 1.1 1.1 1.4 2.1 1.4.2 0 .5 0 .8-.1s.6-.1 1-.1h.3l.9 5-.1.1c-.1.1-.3.2-.4.2zm-32.8 23.3c1.2 0 2.5-.3 3.9-.8l.3-.1-.9-4.6-.4.1c-.6.1-1.1.2-1.7.3-.3.1-.5.1-.7.1-.5 0-.9-.2-1.1-1.1-.3-1-.5-2-.7-2.9-.2-.7-.3-1.4-.5-2-.7-3-1.6-5.9-4.8-7.4 1.4-1.5 2-3.1 2-4.7 0-1.2-.1-2.4-.2-3.7v-.3c0-.7-.2-1.4-.3-2s-.2-1.3-.3-1.9c-.2-2.1-.2-2.6 2-2.9.1 0 .3 0 .5-.1s.4-.1.6-.2l.3-.1-.9-4.7v.1h-.3c-.5 0-1 .1-1.4.2s-.8.2-1.3.2c-3.3.8-4.9 2.8-4.8 5.9 0 1.3.2 2.6.4 3.9l.3 2.4c.2 1 .2 2 .2 3.2-.1 1.8-.6 2.4-2.4 2.9-.1 0-.2 0-.3.1s-.3.1-.4.2l-.3.1 1 5.1h.3c.6-.1 1-.1 1.4-.1 1.9 0 2.5.9 3.3 4 .2.6.3 1.3.4 1.9.1.7.2 1.3.4 2 .3 1.3.8 2.5 1.2 3.7.9 2.1 2.7 3.2 5.2 3.2zm22.2-24c.1 1-.2 2-.8 2.7-.5.6-1.2.9-1.9.9h-.4c-1.5 0-2.7-1-3.1-2.5-.3-1.8.9-3.3 2.6-3.6h.5c1.5 0 2.9 1.1 3.1 2.5zm-15.1 2.5c0 .2 0 .3.2.5.4 1.4 1.4 2.3 2.8 2.3.3 0 .5-.1.8-.1 1.8-.4 2.7-1.8 2.3-3.6-.4-1.5-1.5-2.4-3-2.4-.2 0-.4 0-.7.1-.8.1-1.4.5-1.9 1.1-.4.6-.6 1.4-.5 2.1zm-8.9 2c.2 1.5 1.5 2.5 3 2.5h.5c1.7-.3 2.8-1.8 2.6-3.3v-.2c-.4-1.5-1.7-2.6-3.2-2.6-.1 0-.3 0-.5.1-1.5.3-2.6 1.9-2.4 3.5z"/></g></svg>